.
..............................Site Info...........................

 -   http://www.scenetime.com  *_*    

Scenetime .Always on time . friendly online private torrent community ..

     We care to share . Join us on  http://www.scenetime.com 

    Be the first to get new release at  http://www.scenetime.com

        Seed back for speed


...................................NFO:.................................................[center][img]http://lookpic.com/O/i2/1985/1XY6ule.jpeg[/img][/center]
[center][img]http://lookpic.com/O/i2/552/kJnsZ0Cq.jpeg[/img][/center]
 
http://www.imdb.com/title/tt1720182/

[pre][b]October Baby 2012 DVDRip XviD AC3-PROJECT X

Source: R1 Retail DVD9

Format                                   : AVI
Format/Info                              : Audio Video Interleave
File size                                : 1.64 GiB
Duration                                 : 1h 48mn
Overall bit rate                         : 2 153 Kbps

Video
ID                                       : 0
Format                                   : MPEG-4 Visual
Format profile                           : Advanced Simple@L5
Format settings, BVOP                    : 2
Format settings, QPel                    : Yes
Format settings, GMC                     : No warppoints
Format settings, Matrix                  : Default (MPEG)
Muxing mode                              : Packed bitstream
Codec ID                                 : XVID
Codec ID/Hint                            : XviD
Duration                                 : 1h 48mn
Bit rate                                 : 1 695 Kbps
Width                                    : 720 pixels
Height                                   : 304 pixels
Display aspect ratio                     : 2.35:1
Frame rate                               : 23.976 fps
Color space                              : YUV
Chroma subsampling                       : 4:2:0
Bit depth                                : 8 bits
Scan type                                : Progressive
Compression mode                         : Lossy
Bits/(Pixel*Frame)                       : 0.323
Stream size                              : 1.29 GiB (79%)
Writing library                          : XviD 64

Audio
ID                                       : 1
Format                                   : AC-3
Format/Info                              : Audio Coding 3
Mode extension                           : CM (complete main)
Format settings, Endianness              : Big
Codec ID                                 : 2000
Duration                                 : 1h 48mn
Bit rate mode                            : Constant
Bit rate                                 : 448 Kbps
Channel(s)                               : 6 channels
Channel positions                        : Front: L C R, Side: L R, LFE
Sampling rate                            : 48.0 KHz
Bit depth                                : 16 bits
Compression mode                         : Lossy
Stream size                              : 349 MiB (21%)
Alignment                                : Aligned on interleaves
Interleave, duration                     : 42 ms (1.00 video frame)
Interleave, preload duration             : 512 ms

SCREENS:[/b][/pre]

[center][img]http://lookpic.com/O/i2/1207/F66Q3M5C.png[/img][/center]
[center][img]http://lookpic.com/O/i2/261/KRYjEwkh.png[/img][/center]
[center][img]http://lookpic.com/O/i2/317/snmd179S.png[/img][/center]
[center][img]http://lookpic.com/O/i2/77/caYAanAp.png[/img][/center]
[center][img]http://lookpic.com/O/i2/779/w3cWxbly.png[/img][/center]
[center][img]http://lookpic.com/O/i2/1448/yiuwXZTx.png[/img][/center]